<svg xmlns="http://www.w3.org/2000/svg" width="800.0" height="400.0" viewBox="0 0 80.0 40.0">
<style>.hall-border{stroke:#1f2933;stroke-width:0.18;fill:none;}.zone-outline{stroke:#9ca3af;stroke-width:0.12;stroke-dasharray:0.6 0.6;fill:none;}.booth{stroke:#2e2e2e;stroke-width:0.12;}.booth-text{font-size:1.2px;font-family:Arial,sans-serif;fill:#1f2933;}.corridor-main{stroke:none;}.corridor-secondary{stroke:none;}</style>
<rect x="0.0" y="0.0" width="80.0" height="40.0" class="hall-border" stroke="#1f2933" stroke-width="0.18" fill="none" />
<rect x="48.0" y="0.0" width="4.0" height="40.0" class="corridor-main" stroke="none" stroke-width="0.0" fill="#d5e5ff" />
<rect x="0.0" y="3.0" width="80.0" height="4.0" class="corridor-main" stroke="none" stroke-width="0.0" fill="#d5e5ff" />
<rect x="0.0" y="33.0" width="80.0" height="4.0" class="corridor-main" stroke="none" stroke-width="0.0" fill="#d5e5ff" />
<rect x="25.5" y="7.0" width="2.5" height="26.0" class="corridor-secondary" stroke="none" stroke-width="0.0" fill="#e8f2ff" />
<rect x="0.0" y="17.0" width="48.0" height="2.5" class="corridor-secondary" stroke="none" stroke-width="0.0" fill="#e8f2ff" />
<rect x="72.0" y="7.0" width="2.5" height="26.0" class="corridor-secondary" stroke="none" stroke-width="0.0" fill="#e8f2ff" />
<rect x="52.0" y="17.0" width="28.0" height="2.5" class="corridor-secondary" stroke="none" stroke-width="0.0" fill="#e8f2ff" />
<rect x="0.0" y="0.0" width="10.0" height="3.0" class="booth" stroke="#2e2e2e" stroke-width="0.12" fill="#f2a4b7" /><text x="5.0" y="1.5" class="booth-text" text-anchor="middle" dominant-baseline="middle">30 m2</text>
<rect x="10.0" y="0.0" width="10.0" height="3.0" class="booth" stroke="#2e2e2e" stroke-width="0.12" fill="#f2a4b7" /><text x="15.0" y="1.5" class="booth-text" text-anchor="middle" dominant-baseline="middle">30 m2</text>
<rect x="20.0" y="0.0" width="10.0" height="3.0" class="booth" stroke="#2e2e2e" stroke-width="0.12" fill="#f2a4b7" /><text x="25.0" y="1.5" class="booth-text" text-anchor="middle" dominant-baseline="middle">30 m2</text>
<rect x="30.0" y="0.0" width="6.0" height="3.0" class="booth" stroke="#2e2e2e" stroke-width="0.12" fill="#f2a4b7" /><text x="33.0" y="1.5" class="booth-text" text-anchor="middle" dominant-baseline="middle">18 m2</text>
<rect x="36.0" y="0.0" width="6.0" height="3.0" class="booth" stroke="#2e2e2e" stroke-width="0.12" fill="#f2a4b7" /><text x="39.0" y="1.5" class="booth-text" text-anchor="middle" dominant-baseline="middle">18 m2</text>
<rect x="42.0" y="0.0" width="6.0" height="3.0" class="booth" stroke="#2e2e2e" stroke-width="0.12" fill="#f2a4b7" /><text x="45.0" y="1.5" class="booth-text" text-anchor="middle" dominant-baseline="middle">18 m2</text>
<rect x="52.0" y="0.0" width="10.0" height="3.0" class="booth" stroke="#2e2e2e" stroke-width="0.12" fill="#f2a4b7" /><text x="57.0" y="1.5" class="booth-text" text-anchor="middle" dominant-baseline="middle">30 m2</text>
<rect x="62.0" y="0.0" width="5.0" height="3.0" class="booth" stroke="#2e2e2e" stroke-width="0.12" fill="#f2a4b7" /><text x="64.5" y="1.5" class="booth-text" text-anchor="middle" dominant-baseline="middle">15 m2</text>
<rect x="67.0" y="0.0" width="5.0" height="3.0" class="booth" stroke="#2e2e2e" stroke-width="0.12" fill="#f2a4b7" /><text x="69.5" y="1.5" class="booth-text" text-anchor="middle" dominant-baseline="middle">15 m2</text>
<rect x="72.0" y="0.0" width="4.0" height="3.0" class="booth" stroke="#2e2e2e" stroke-width="0.12" fill="#f2a4b7" /><text x="74.0" y="1.5" class="booth-text" text-anchor="middle" dominant-baseline="middle">12 m2</text>
<rect x="76.0" y="0.0" width="4.0" height="3.0" class="booth" stroke="#2e2e2e" stroke-width="0.12" fill="#f2a4b7" /><text x="78.0" y="1.5" class="booth-text" text-anchor="middle" dominant-baseline="middle">12 m2</text>
<rect x="0.0" y="37.0" width="10.0" height="3.0" class="booth" stroke="#2e2e2e" stroke-width="0.12" fill="#f2a4b7" /><text x="5.0" y="38.5" class="booth-text" text-anchor="middle" dominant-baseline="middle">30 m2</text>
<rect x="10.0" y="37.0" width="6.0" height="3.0" class="booth" stroke="#2e2e2e" stroke-width="0.12" fill="#f2a4b7" /><text x="13.0" y="38.5" class="booth-text" text-anchor="middle" dominant-baseline="middle">18 m2</text>
<rect x="16.0" y="37.0" width="6.0" height="3.0" class="booth" stroke="#2e2e2e" stroke-width="0.12" fill="#f2a4b7" /><text x="19.0" y="38.5" class="booth-text" text-anchor="middle" dominant-baseline="middle">18 m2</text>
<rect x="22.0" y="37.0" width="5.0" height="3.0" class="booth" stroke="#2e2e2e" stroke-width="0.12" fill="#f2a4b7" /><text x="24.5" y="38.5" class="booth-text" text-anchor="middle" dominant-baseline="middle">15 m2</text>
<rect x="27.0" y="37.0" width="5.0" height="3.0" class="booth" stroke="#2e2e2e" stroke-width="0.12" fill="#f2a4b7" /><text x="29.5" y="38.5" class="booth-text" text-anchor="middle" dominant-baseline="middle">15 m2</text>
<rect x="32.0" y="37.0" width="4.0" height="3.0" class="booth" stroke="#2e2e2e" stroke-width="0.12" fill="#f2a4b7" /><text x="34.0" y="38.5" class="booth-text" text-anchor="middle" dominant-baseline="middle">12 m2</text>
<rect x="36.0" y="37.0" width="4.0" height="3.0" class="booth" stroke="#2e2e2e" stroke-width="0.12" fill="#f2a4b7" /><text x="38.0" y="38.5" class="booth-text" text-anchor="middle" dominant-baseline="middle">12 m2</text>
<rect x="40.0" y="37.0" width="4.0" height="3.0" class="booth" stroke="#2e2e2e" stroke-width="0.12" fill="#f2a4b7" /><text x="42.0" y="38.5" class="booth-text" text-anchor="middle" dominant-baseline="middle">12 m2</text>
<rect x="52.0" y="37.0" width="4.0" height="3.0" class="booth" stroke="#2e2e2e" stroke-width="0.12" fill="#f2a4b7" /><text x="54.0" y="38.5" class="booth-text" text-anchor="middle" dominant-baseline="middle">12 m2</text>
<rect x="28.0" y="7.0" width="20.0" height="10.0" class="booth" stroke="#2e2e2e" stroke-width="0.12" fill="#f7c266" /><text x="38.0" y="12.0" class="booth-text" text-anchor="middle" dominant-baseline="middle">200 m2</text>
<rect x="52.0" y="7.0" width="20.0" height="10.0" class="booth" stroke="#2e2e2e" stroke-width="0.12" fill="#f7c266" /><text x="62.0" y="12.0" class="booth-text" text-anchor="middle" dominant-baseline="middle">200 m2</text>
<rect x="40.0" y="19.5" width="8.0" height="5.0" class="booth" stroke="#2e2e2e" stroke-width="0.12" fill="#b2d39f" /><text x="44.0" y="22.0" class="booth-text" text-anchor="middle" dominant-baseline="middle">40 m2</text>
<rect x="30.0" y="19.5" width="10.0" height="8.0" class="booth" stroke="#2e2e2e" stroke-width="0.12" fill="#8bd3e6" /><text x="35.0" y="23.5" class="booth-text" text-anchor="middle" dominant-baseline="middle">80 m2</text>
<rect x="19.5" y="7.0" width="6.0" height="10.0" class="booth" stroke="#2e2e2e" stroke-width="0.12" fill="#b2d39f" /><text x="22.5" y="12.0" class="booth-text" text-anchor="middle" dominant-baseline="middle">60 m2</text>
<rect x="9.0" y="7.0" width="10.0" height="10.0" class="booth" stroke="#2e2e2e" stroke-width="0.12" fill="#8bd3e6" /><text x="14.0" y="12.0" class="booth-text" text-anchor="middle" dominant-baseline="middle">100 m2</text>
<rect x="19.5" y="20.0" width="6.0" height="10.0" class="booth" stroke="#2e2e2e" stroke-width="0.12" fill="#b2d39f" /><text x="22.5" y="25.0" class="booth-text" text-anchor="middle" dominant-baseline="middle">60 m2</text>
<rect x="40.0" y="25.0" width="8.0" height="6.0" class="booth" stroke="#2e2e2e" stroke-width="0.12" fill="#b2d39f" /><text x="44.0" y="28.0" class="booth-text" text-anchor="middle" dominant-baseline="middle">48 m2</text>
<rect x="32.0" y="28.0" width="8.0" height="5.0" class="booth" stroke="#2e2e2e" stroke-width="0.12" fill="#b2d39f" /><text x="36.0" y="30.5" class="booth-text" text-anchor="middle" dominant-baseline="middle">40 m2</text>
<rect x="11.0" y="19.5" width="8.0" height="10.0" class="booth" stroke="#2e2e2e" stroke-width="0.12" fill="#8bd3e6" /><text x="15.0" y="24.5" class="booth-text" text-anchor="middle" dominant-baseline="middle">80 m2</text>
<rect x="0.0" y="7.0" width="9.0" height="10.0" class="booth" stroke="#2e2e2e" stroke-width="0.12" fill="#8bd3e6" /><text x="4.5" y="12.0" class="booth-text" text-anchor="middle" dominant-baseline="middle">90 m2</text>
<rect x="1.0" y="19.5" width="10.0" height="10.0" class="booth" stroke="#2e2e2e" stroke-width="0.12" fill="#8bd3e6" /><text x="6.0" y="24.5" class="booth-text" text-anchor="middle" dominant-baseline="middle">100 m2</text>
<rect x="52.0" y="19.5" width="8.0" height="6.0" class="booth" stroke="#2e2e2e" stroke-width="0.12" fill="#b2d39f" /><text x="56.0" y="22.5" class="booth-text" text-anchor="middle" dominant-baseline="middle">48 m2</text>
<rect x="60.0" y="19.5" width="8.0" height="5.0" class="booth" stroke="#2e2e2e" stroke-width="0.12" fill="#b2d39f" /><text x="64.0" y="22.0" class="booth-text" text-anchor="middle" dominant-baseline="middle">40 m2</text>
<rect x="52.0" y="26.0" width="8.0" height="6.0" class="booth" stroke="#2e2e2e" stroke-width="0.12" fill="#b2d39f" /><text x="56.0" y="29.0" class="booth-text" text-anchor="middle" dominant-baseline="middle">48 m2</text>
<rect x="28.0" y="28.0" width="4.0" height="5.0" class="booth" stroke="#2e2e2e" stroke-width="0.12" fill="#f2a4b7" /><text x="30.0" y="30.5" class="booth-text" text-anchor="middle" dominant-baseline="middle">20 m2</text>
<rect x="60.0" y="25.0" width="10.0" height="8.0" class="booth" stroke="#2e2e2e" stroke-width="0.12" fill="#8bd3e6" /><text x="65.0" y="29.0" class="booth-text" text-anchor="middle" dominant-baseline="middle">80 m2</text>
<rect x="74.5" y="7.0" width="4.0" height="5.0" class="booth" stroke="#2e2e2e" stroke-width="0.12" fill="#f2a4b7" /><text x="76.5" y="9.5" class="booth-text" text-anchor="middle" dominant-baseline="middle">20 m2</text>
<rect x="68.0" y="19.5" width="4.0" height="5.0" class="booth" stroke="#2e2e2e" stroke-width="0.12" fill="#f2a4b7" /><text x="70.0" y="22.0" class="booth-text" text-anchor="middle" dominant-baseline="middle">20 m2</text>
<rect x="74.5" y="20.0" width="5.0" height="8.0" class="booth" stroke="#2e2e2e" stroke-width="0.12" fill="#b2d39f" /><text x="77.0" y="24.0" class="booth-text" text-anchor="middle" dominant-baseline="middle">40 m2</text>
<rect x="74.5" y="12.0" width="4.0" height="5.0" class="booth" stroke="#2e2e2e" stroke-width="0.12" fill="#f2a4b7" /><text x="76.5" y="14.5" class="booth-text" text-anchor="middle" dominant-baseline="middle">20 m2</text>
<rect x="74.5" y="28.0" width="5.0" height="4.0" class="booth" stroke="#2e2e2e" stroke-width="0.12" fill="#f2a4b7" /><text x="77.0" y="30.0" class="booth-text" text-anchor="middle" dominant-baseline="middle">20 m2</text>
<rect x="0.0" y="7.0" width="48.0" height="26.0" class="zone-outline" stroke="#9ca3af" stroke-width="0.12" fill="none" />
<rect x="52.0" y="7.0" width="28.0" height="26.0" class="zone-outline" stroke="#9ca3af" stroke-width="0.12" fill="none" />
<rect x="0.0" y="0.0" width="48.0" height="3.0" class="zone-outline" stroke="#9ca3af" stroke-width="0.12" fill="none" />
<rect x="52.0" y="0.0" width="28.0" height="3.0" class="zone-outline" stroke="#9ca3af" stroke-width="0.12" fill="none" />
<rect x="0.0" y="37.0" width="48.0" height="3.0" class="zone-outline" stroke="#9ca3af" stroke-width="0.12" fill="none" />
<rect x="52.0" y="37.0" width="28.0" height="3.0" class="zone-outline" stroke="#9ca3af" stroke-width="0.12" fill="none" />
</svg>